HIERARCHY
ROOT Hips
{
	OFFSET 0.000000 0.000000 0.000000
	CHANNELS 6 Xposition Yposition Zposition Zrotation Yrotation Xrotation 
	JOINT LHipJoint
	{
		OFFSET 0.000000 0.000000 0.000000
		CHANNELS 3 Zrotation Yrotation Xrotation
		JOINT LeftUpLeg
		{
			OFFSET 1.363060 -1.794630 0.839290
			CHANNELS 3 Zrotation Yrotation Xrotation
			JOINT LeftLeg
			{
				OFFSET 2.448110 -6.726130 0.000000
				CHANNELS 3 Zrotation Yrotation Xrotation
				JOINT LeftFoot
				{
					OFFSET 2.562200 -7.039590 0.000000
					CHANNELS 3 Zrotation Yrotation Xrotation
					JOINT LeftToeBase
					{
						OFFSET 0.157640 -0.433110 2.322550
						CHANNELS 3 Zrotation Yrotation Xrotation
						End Site
						{
							OFFSET 0.000000 0.000000 0.000000
						}
					}
				}
			}
		}
	}
	JOINT RHipJoint
	{
		OFFSET 0.000000 0.000000 0.000000
		CHANNELS 3 Zrotation Yrotation Xrotation
		JOINT RightUpLeg
		{
			OFFSET -1.305520 -1.794630 0.839290
			CHANNELS 3 Zrotation Yrotation Xrotation
			JOINT RightLeg
			{
				OFFSET -2.542530 -6.985550 0.000000
				CHANNELS 3 Zrotation Yrotation Xrotation
				JOINT RightFoot
				{
					OFFSET -2.568260 -7.056230 0.000000
					CHANNELS 3 Zrotation Yrotation Xrotation
					JOINT RightToeBase
					{
						OFFSET -0.164730 -0.452590 2.363150
						CHANNELS 3 Zrotation Yrotation Xrotation
						End Site
						{
							OFFSET 0.000000 0.000000 0.000000
						}
					}
				}
			}
		}
	}
	JOINT LowerBack
	{
		OFFSET 0.000000 0.000000 0.000000
		CHANNELS 3 Zrotation Yrotation Xrotation
		JOINT Spine
		{
			OFFSET 0.028270 2.035590 -0.193380
			CHANNELS 3 Zrotation Yrotation Xrotation
			JOINT Spine1
			{
				OFFSET 0.056720 2.048850 -0.042750
				CHANNELS 3 Zrotation Yrotation Xrotation
				JOINT Neck
				{
					OFFSET 0.000000 0.000000 0.000000
					CHANNELS 3 Zrotation Yrotation Xrotation
					JOINT Neck1
					{
						OFFSET -0.054170 1.746240 0.172020
						CHANNELS 3 Zrotation Yrotation Xrotation
						JOINT Head
						{
							OFFSET 0.104070 1.761360 -0.123970
							CHANNELS 3 Zrotation Yrotation Xrotation
							End Site
							{
								OFFSET 0.000000 0.000000 0.000000
							}
						}
					}
				}
				JOINT LeftShoulder
				{
					OFFSET 0.000000 0.000000 0.000000
					CHANNELS 3 Zrotation Yrotation Xrotation
					JOINT LeftArm
					{
						OFFSET 3.362410 1.200890 -0.311210
						CHANNELS 3 Zrotation Yrotation Xrotation
						JOINT LeftForeArm
						{
							OFFSET 4.983000 -0.000000 -0.000000
							CHANNELS 3 Zrotation Yrotation Xrotation
							JOINT LeftHand
							{
								OFFSET 3.483560 -0.000000 -0.000000
								CHANNELS 3 Zrotation Yrotation Xrotation
								JOINT LeftFingerBase
								{
									OFFSET 0.000000 0.000000 0.000000
									CHANNELS 3 Zrotation Yrotation Xrotation
									JOINT LeftHandIndex1
									{
										OFFSET 0.715260 -0.000000 -0.000000
										CHANNELS 3 Zrotation Yrotation Xrotation
										End Site
										{
											OFFSET 0.000000 0.000000 0.000000
										}
									}
								}
								JOINT LThumb
								{
									OFFSET 0.000000 0.000000 0.000000
									CHANNELS 3 Zrotation Yrotation Xrotation
									End Site
									{
										OFFSET 0.000000 0.000000 0.000000
									}
								}
							}
						}
					}
				}
				JOINT RightShoulder
				{
					OFFSET 0.000000 0.000000 0.000000
					CHANNELS 3 Zrotation Yrotation Xrotation
					JOINT RightArm
					{
						OFFSET -3.136600 1.374050 -0.404650
						CHANNELS 3 Zrotation Yrotation Xrotation
						JOINT RightForeArm
						{
							OFFSET -5.241900 -0.000000 -0.000000
							CHANNELS 3 Zrotation Yrotation Xrotation
							JOINT RightHand
							{
								OFFSET -3.444170 -0.000000 -0.000000
								CHANNELS 3 Zrotation Yrotation Xrotation
								JOINT RightFingerBase
								{
									OFFSET 0.000000 0.000000 0.000000
									CHANNELS 3 Zrotation Yrotation Xrotation
									JOINT RightHandIndex1
									{
										OFFSET -0.622530 -0.000000 -0.000000
										CHANNELS 3 Zrotation Yrotation Xrotation
										End Site
										{
											OFFSET 0.000000 0.000000 0.000000
										}
									}
								}
								JOINT RThumb
								{
									OFFSET 0.000000 0.000000 0.000000
									CHANNELS 3 Zrotation Yrotation Xrotation
									End Site
									{
										OFFSET 0.000000 0.000000 0.000000
									}
								}
							}
						}
					}
				}
			}
		}
	}
}
MOTION
Frames: 4
Frame Time: 0.008333
-7.563296 17.805456 6.926066 -175.693975 3.844980 -171.837555 4.259716 1.065067 -1.065663 -14.789105 -3.806206 -20.222170 -1.843338 8.476514 20.953722 -3.102127 16.656806 -5.690420 1.443300 -7.594900 -21.490400 -7.217881 -2.568451 -2.334990 24.153839 -8.116670 2.380165 3.217046 -3.349999 12.784199 6.961666 -39.132799 -33.733902 -4.338400 -12.597600 37.880200 1.771187 2.706506 6.387921 0.648210 3.842508 -3.969314 -4.413426 1.724351 -2.444891 7.415914 13.886412 -17.689268 1.559219 15.914881 16.235860 -1.296500 6.946600 16.998600 4.351626 -2.306134 0.081456 -71.215306 -9.266036 42.548530 76.380106 -56.223347 -50.946193 0.749042 -1.334918 -47.511015 43.055105 59.914371 39.757200 -7.125000 0.000000 0.000000 175.090900 8.239500 4.170700 -3.362665 1.199378 -1.382793 74.286838 -7.738774 27.992246 -83.147902 59.976358 -56.180871 0.685616 0.036957 -35.024322 -19.951826 9.361733 -3.616400 7.125000 0.000000 0.000000 4.591300 -19.637600 2.790200 
-7.697139 17.841041 6.781727 -175.869807 2.876925 -172.162941 4.216029 1.140620 -0.950187 -15.742806 -2.891655 -19.449003 -1.937060 8.062852 20.029816 -2.725283 15.106070 -5.040661 1.544600 -7.845100 -22.244500 -7.202276 -2.591932 -2.430585 23.232888 -7.489737 0.309055 2.322833 -5.484811 18.283620 7.146483 -37.903275 -27.685737 -3.770100 -11.848100 35.196600 1.540314 2.911059 6.339914 0.567926 4.105592 -3.941099 -4.450070 1.855677 -2.319931 7.033819 13.453428 -17.751355 1.609542 15.379848 16.505309 -1.301400 6.667500 17.115400 4.317318 -2.288780 0.057943 -70.998844 -9.492198 42.774517 75.179645 -56.058769 -49.859293 0.750506 -1.353521 -47.740531 42.414640 59.628102 39.065700 -7.125000 0.000000 0.000000 175.062800 7.799100 4.237700 -3.380380 1.195254 -1.405926 74.400277 -7.413519 28.306296 -81.860163 59.881636 -55.055613 0.683887 0.034213 -35.108401 -19.815655 9.448514 -3.622000 7.125000 0.000000 0.000000 4.692200 -19.553600 2.860700 
-7.828084 17.872428 6.645884 -176.193567 1.932649 -172.575683 4.176144 1.238949 -0.821586 -16.680578 -2.982090 -18.155141 -2.080807 7.639636 19.046462 -2.540329 14.408452 -5.161189 1.536700 -7.825800 -22.186100 -7.190757 -2.642912 -2.534832 22.088686 -8.863157 -1.941011 1.185249 -7.200428 23.025533 5.960860 -33.535284 -18.976495 -2.450400 -9.747100 28.161700 1.224146 3.089523 6.464323 0.471317 4.336256 -3.923790 -4.504788 1.973359 -2.294891 6.610546 13.052777 -17.841173 1.759421 14.879271 16.898762 -1.217300 6.393800 17.330100 4.271097 -2.270250 0.027899 -70.812969 -9.576843 42.910590 74.337154 -55.934539 -49.098560 0.759159 -1.362827 -48.258922 41.992844 59.361648 38.591900 -7.125000 0.000000 0.000000 175.076100 7.444500 4.260600 -3.401431 1.203944 -1.434298 74.364401 -7.011321 28.960340 -80.385840 59.747004 -53.756054 0.690710 0.041456 -35.080240 -20.187430 9.459281 -3.698800 7.125000 0.000000 0.000000 4.420400 -19.517800 2.697500 
-7.954330 17.895118 6.516939 -176.528117 0.818885 -172.977955 4.136980 1.317491 -0.729878 -17.513839 -3.678981 -16.655934 -2.229697 7.259535 18.158445 -2.448336 14.126364 -5.726225 1.456200 -7.627200 -21.587300 -7.154662 -2.654169 -2.567532 21.067996 -9.598695 -3.803964 0.085085 -8.584118 27.170146 4.352610 -27.669992 -12.430895 -1.065400 -6.562000 18.424100 0.932571 3.223284 6.638557 0.385627 4.445964 -3.903707 -4.589341 2.001154 -2.277506 6.355794 12.710562 -17.994179 1.824628 14.410185 17.295994 -1.209500 6.141100 17.630400 4.231108 -2.261304 0.002968 -70.653088 -9.571231 42.883427 73.766588 -55.846813 -48.587377 0.766013 -1.372375 -48.555351 41.919724 59.316583 38.517000 -7.125000 0.000000 0.000000 175.080300 7.384900 4.262700 -3.413754 1.207128 -1.460995 74.201507 -6.482541 29.889935 -78.804268 59.580924 -52.350340 0.702748 0.048122 -35.060715 -20.722526 9.621552 -3.867900 7.125000 0.000000 0.000000 4.032800 -19.304100 2.479000 
